<?xml version="1.0" standalone="no"?>
<!DOCTYPE svg PUBLIC "-//W3C//DTD SVG 20010904//EN"
 "http://www.w3.org/TR/2001/REC-SVG-20010904/DTD/svg10.dtd">
<svg version="1.0" xmlns="http://www.w3.org/2000/svg"
 width="1280.000000pt" height="1215.000000pt" viewBox="0 0 1280.000000 1215.000000"
 preserveAspectRatio="xMidYMid meet">
<metadata>
Created by potrace 1.15, written by Peter Selinger 2001-2017
</metadata>
<g transform="translate(0.000000,1215.000000) scale(0.100000,-0.100000)"
fill="#000000" stroke="none">
<path d="M6903 12143 c-18 -6 -16 -30 2 -37 9 -3 18 1 22 10 7 18 -7 33 -24
27z"/>
<path d="M6505 12077 c-4 -10 -3 -23 4 -30 16 -16 26 0 14 25 -10 21 -11 22
-18 5z"/>
<path d="M6710 11073 c0 -44 13 -69 29 -59 12 8 15 54 5 80 -12 32 -34 18 -34
-21z"/>
<path d="M6777 10513 c-4 -6 0 -16 8 -23 21 -17 28 -8 11 15 -8 11 -15 14 -19
8z"/>
<path d="M12505 9933 c-295 -20 -769 -127 -1040 -235 -55 -22 -152 -60 -216
-84 -139 -52 -537 -237 -704 -328 -834 -452 -1739 -1118 -2350 -1730 -136
-136 -380 -429 -569 -681 -120 -161 -115 -153 -91 -134 80 64 350 290 440 369
694 606 1472 1171 2085 1512 324 181 802 401 1100 506 47 17 146 55 221 86
132 54 252 87 774 218 110 27 219 56 243 64 56 18 102 18 130 -2 32 -22 28
-30 -25 -49 -27 -9 -82 -30 -123 -45 -92 -35 -212 -64 -349 -84 -131 -20 -246
-55 -546 -167 -132 -49 -246 -89 -254 -89 -35 0 -183 -54 -221 -81 -39 -29
-42 -33 -36 -68 3 -20 17 -64 31 -98 52 -129 42 -303 -32 -528 -87 -266 -207
-504 -394 -782 -26 -38 -54 -74 -63 -82 -9 -7 -16 -17 -16 -22 0 -5 179 53
398 127 724 248 764 260 1012 305 132 24 162 24 191 0 l23 -18 -25 -15 c-13
-9 -48 -18 -78 -22 -79 -8 -471 -100 -651 -153 -364 -106 -626 -209 -1745
-686 -473 -202 -526 -223 -830 -335 -399 -147 -767 -265 -1065 -341 -345 -88
-568 -193 -605 -285 -9 -21 -13 -46 -10 -56 13 -39 143 -36 395 10 85 16 182
32 215 35 61 7 544 103 780 155 72 16 220 43 330 60 215 33 589 112 987 210
294 71 743 162 918 185 148 20 340 52 390 65 63 16 291 41 329 35 70 -12 80
-15 110 -41 34 -29 40 -60 14 -68 -10 -3 -101 -5 -203 -4 -190 2 -435 -12
-620 -37 -161 -22 -283 -46 -685 -133 -203 -45 -577 -124 -830 -177 -728 -152
-1089 -237 -1425 -336 -185 -54 -508 -118 -588 -116 -53 1 -66 -2 -78 -18 -40
-55 -3 -90 134 -125 62 -16 121 -34 132 -40 50 -27 259 -72 410 -90 229 -26
385 -38 755 -55 649 -32 1122 -76 1390 -130 139 -28 426 -103 571 -150 170
-54 224 -88 224 -140 0 -31 -3 -35 -25 -35 -15 0 -32 11 -46 29 -19 25 -49 39
-203 90 -258 85 -300 96 -496 135 -377 74 -761 108 -1370 121 -536 11 -752 29
-965 80 -77 19 -207 48 -290 65 -82 17 -157 33 -166 36 -17 5 -23 -8 -75 -167
-31 -94 -24 -134 40 -212 129 -158 406 -287 959 -447 298 -85 413 -110 685
-150 418 -59 900 -62 1282 -6 231 34 257 41 346 92 103 60 120 65 352 119 262
60 341 97 467 222 103 101 259 319 277 387 14 52 8 70 -33 95 -50 30 -216 78
-316 90 -98 12 -167 36 -196 68 -16 18 -16 21 -2 33 23 19 295 -27 503 -85
150 -43 163 -45 194 -32 40 17 57 36 92 102 44 85 74 204 87 356 12 127 11
167 -9 405 -14 178 -26 273 -37 293 -18 36 -72 57 -178 70 -118 14 -153 56
-76 91 47 20 66 16 163 -34 76 -40 136 -29 136 25 0 31 38 97 66 115 64 43
114 160 114 270 0 52 6 74 38 135 49 98 122 168 261 254 191 118 228 171 217
305 -3 41 -11 91 -16 110 -32 111 20 278 124 400 80 93 91 127 91 265 -1 113
-2 124 -34 200 -32 76 -33 84 -28 165 3 47 20 139 37 205 17 66 33 150 37 188
l6 67 -30 0 c-36 0 -57 21 -48 49 9 31 34 33 61 6 14 -14 28 -25 31 -25 3 0 3
42 1 93 -6 104 -24 156 -71 205 -38 40 -117 83 -149 80 -13 -1 -45 -3 -73 -5z
m144 -333 c45 -24 34 -70 -15 -70 -42 0 -53 20 -30 55 19 28 20 29 45 15z
m-262 -1654 c25 -22 26 -26 13 -40 -8 -8 -27 -18 -42 -21 -35 -9 -66 32 -48
64 14 28 43 26 77 -3z m-155 -23 c33 -30 16 -73 -29 -73 -28 0 -46 31 -37 65
7 29 38 34 66 8z"/>
<path d="M505 9784 c-198 -21 -409 -84 -459 -137 -28 -29 -29 -33 -23 -106 6
-76 46 -210 85 -287 18 -35 31 -45 94 -72 81 -35 217 -73 353 -97 548 -99
1176 -317 2091 -723 211 -94 730 -352 989 -492 212 -114 303 -160 405 -202 94
-39 178 -90 266 -160 67 -53 238 -175 511 -366 73 -51 223 -151 335 -223 288
-184 540 -358 687 -473 144 -113 170 -131 177 -124 9 10 -68 130 -140 216 -92
110 -126 141 -311 282 -82 63 -208 171 -280 241 -911 879 -1686 1484 -2585
2016 -402 238 -989 519 -1225 586 -194 55 -591 120 -727 118 -47 -1 -97 2
-110 7 -13 5 -72 3 -133 -4z m-377 -296 c-4 -27 -35 -35 -62 -15 -26 19 -12
37 30 37 31 0 35 -3 32 -22z m75 -55 c9 -9 -13 -34 -24 -27 -14 8 -11 34 4 34
8 0 17 -3 20 -7z m119 -59 c15 -15 28 -35 28 -45 0 -21 -48 -39 -76 -29 -22 9
-54 65 -54 95 0 27 66 12 102 -21z"/>
<path d="M6745 9680 c3 -5 11 -10 16 -10 6 0 7 5 4 10 -3 6 -11 10 -16 10 -6
0 -7 -4 -4 -10z"/>
<path d="M6720 9595 c0 -8 2 -15 4 -15 2 0 6 7 10 15 3 8 1 15 -4 15 -6 0 -10
-7 -10 -15z"/>
<path d="M6722 9466 c-17 -37 -15 -45 4 -18 8 12 14 27 12 33 -2 6 -9 -1 -16
-15z"/>
<path d="M66 9084 c-40 -38 -59 -89 -59 -160 1 -84 32 -129 137 -198 89 -59
146 -126 146 -173 0 -15 -7 -46 -15 -68 -8 -22 -14 -60 -15 -84 0 -60 31 -98
135 -167 49 -32 152 -120 243 -207 87 -84 172 -159 188 -169 29 -16 29 -16 30
9 1 13 4 26 7 29 7 8 199 -16 254 -31 28 -8 69 -15 91 -15 52 0 145 -21 302
-70 69 -21 154 -46 190 -55 82 -22 77 -20 125 -48 39 -23 54 -53 25 -51 -30 3
-118 27 -280 75 -199 59 -323 85 -490 99 -69 6 -143 15 -165 20 -40 8 -40 8
-15 -8 50 -34 113 -98 126 -129 8 -18 14 -57 14 -87 0 -67 27 -117 73 -139 61
-29 80 -60 88 -140 13 -131 83 -295 136 -315 46 -18 110 -28 498 -82 366 -50
807 -119 900 -140 26 -6 102 -31 168 -56 110 -41 235 -73 345 -88 l43 -6 -75
74 c-126 126 -288 359 -408 586 -51 96 -188 441 -188 473 0 8 -16 85 -36 173
-35 155 -76 277 -115 340 -30 49 -101 88 -240 132 -69 22 -148 54 -175 70 -99
61 -683 281 -1004 379 -408 124 -878 253 -923 253 -21 0 -42 -9 -61 -26z
m1324 -1928 c21 -26 8 -61 -24 -64 -33 -4 -46 10 -46 51 0 23 4 27 29 27 16 0
34 -7 41 -14z m114 -12 c22 -8 20 -47 -3 -68 -36 -33 -74 8 -55 58 6 16 30 21
58 10z m112 -2 c37 -24 33 -82 -6 -82 -49 0 -60 18 -38 65 11 25 24 31 44 17z"/>
<path d="M10785 8902 c-45 -16 -159 -71 -255 -124 -96 -53 -238 -125 -315
-159 -312 -137 -464 -226 -840 -487 -371 -259 -973 -766 -1380 -1163 -324
-316 -404 -387 -493 -439 -40 -24 -120 -82 -178 -129 -58 -47 -122 -99 -142
-114 -48 -37 -66 -70 -52 -97 12 -22 21 -25 35 -11 17 16 167 72 260 97 143
39 266 81 467 160 195 77 370 130 698 209 326 78 691 207 1083 382 105 47 240
103 300 124 139 50 186 74 282 147 174 129 213 175 430 503 158 239 218 366
252 533 27 133 27 238 -3 381 -19 91 -55 215 -63 215 -3 -1 -42 -13 -86 -28z
m-309 -456 c26 -26 34 -42 34 -70 0 -49 -18 -83 -57 -107 -42 -26 -85 -18
-113 21 -33 47 -27 90 23 144 23 25 50 46 61 46 10 0 33 -15 52 -34z"/>
<path d="M2613 8114 c9 -85 35 -164 162 -484 159 -401 268 -592 456 -798 232
-253 451 -373 761 -416 58 -9 160 -29 225 -45 175 -44 607 -136 778 -166 217
-37 604 -113 720 -140 131 -31 328 -59 359 -51 30 7 41 44 19 68 -9 10 -57 46
-107 80 -327 224 -675 481 -716 529 -44 53 -138 123 -220 164 -68 35 -145 91
-237 174 -83 75 -146 119 -182 128 -15 3 -42 22 -62 42 -72 72 -505 341 -769
477 -366 190 -1033 475 -1147 491 l-46 6 6 -59z m653 -385 c21 -17 23 -62 7
-119 -28 -98 -96 -137 -157 -89 -21 17 -26 29 -26 65 0 59 20 96 72 133 43 31
76 34 104 10z"/>
<path d="M3186 7638 c-18 -25 -21 -58 -7 -58 11 0 36 69 28 76 -3 3 -12 -5
-21 -18z"/>
<path d="M6562 7003 c-5 -10 -6 -27 -1 -38 17 -43 9 -181 -16 -278 -33 -129
-63 -191 -126 -264 -85 -98 -129 -236 -95 -301 24 -46 20 -68 -25 -139 -22
-36 -43 -80 -46 -99 -5 -32 -3 -36 26 -47 40 -15 40 -41 1 -106 -52 -84 -55
-102 -26 -164 l26 -54 -20 -79 c-26 -100 -28 -140 -8 -184 14 -31 14 -42 1
-100 -19 -86 -11 -332 16 -495 30 -175 58 -309 76 -351 8 -20 15 -45 15 -55 0
-13 7 -19 24 -19 31 0 37 -18 18 -52 -22 -38 -10 -44 45 -21 64 25 82 63 90
182 5 71 10 94 25 108 18 16 20 16 36 -1 14 -14 17 -35 15 -136 l-3 -118 43
-7 c67 -10 193 -54 232 -81 43 -29 91 -32 99 -6 38 139 44 199 41 427 -3 172
-7 240 -19 272 -8 23 -18 62 -22 88 -5 40 -3 51 16 78 l23 31 -21 60 c-38 112
-38 186 3 186 23 0 27 17 11 47 -8 16 -20 57 -27 92 l-12 64 27 22 c32 25 29
52 -10 121 -27 47 -30 82 -9 110 20 26 18 51 -7 104 -14 29 -23 76 -28 135 -4
50 -15 128 -25 174 -16 72 -17 91 -6 146 22 107 -10 200 -74 218 -17 5 -50 19
-75 30 -38 19 -50 32 -77 87 -49 101 -55 143 -36 242 29 154 29 154 -6 172
-40 21 -78 20 -89 -1z m-98 -1266 c16 -12 16 -19 -10 -120 -28 -115 -53 -162
-96 -187 -41 -22 -55 -4 -40 52 15 62 42 139 57 168 7 14 18 42 24 63 13 39
33 47 65 24z m-5 -373 c3 -3 0 -32 -5 -65 -8 -49 -8 -64 4 -75 7 -8 17 -14 22
-14 16 0 19 -30 6 -62 -8 -18 -17 -48 -21 -65 -6 -29 -3 -34 18 -42 36 -14 40
-26 28 -79 -5 -26 -13 -68 -16 -94 -6 -46 -5 -48 18 -48 15 0 26 -7 29 -17 2
-10 3 -88 2 -174 -2 -156 -10 -199 -39 -199 -27 0 -38 45 -43 167 -4 113 -6
124 -27 137 -16 10 -25 29 -30 61 -3 26 -13 65 -21 88 -11 31 -14 62 -9 120 6
66 5 81 -10 97 -40 44 -24 181 29 253 18 25 45 29 65 11z m385 -174 c33 -12
33 -40 1 -70 -23 -22 -27 -22 -41 -8 -11 11 -14 25 -9 52 8 39 11 41 49 26z
m19 -268 c30 -27 16 -102 -20 -102 -42 0 -63 49 -47 108 5 17 11 21 28 16 11
-3 29 -13 39 -22z m-19 -188 c35 -34 32 -114 -3 -114 -34 0 -51 28 -51 81 0
42 3 49 19 49 11 0 27 -7 35 -16z m-56 -163 c19 -12 74 -132 67 -148 -3 -9
-16 -13 -36 -11 -44 4 -71 44 -77 113 -4 49 -2 55 14 55 11 0 25 -4 32 -9z"/>
<path d="M6400 6928 c-29 -70 -66 -279 -53 -303 9 -15 14 -12 41 21 17 21 38
58 47 83 15 45 19 146 6 190 -9 33 -29 38 -41 9z"/>
<path d="M6795 6922 c-17 -22 -20 -43 -20 -117 0 -81 3 -95 30 -145 17 -30 36
-55 44 -55 8 0 25 25 38 55 25 58 25 131 1 202 -10 31 -55 88 -67 88 -3 0 -15
-13 -26 -28z"/>
<path d="M1355 6870 c-12 -14 -16 -30 -13 -57 3 -25 -9 -88 -34 -183 -41 -151
-65 -288 -55 -313 10 -27 87 -37 245 -30 138 6 154 4 172 -12 16 -15 18 -21 8
-33 -11 -12 -32 -14 -133 -7 -218 15 -260 13 -289 -14 -50 -47 -59 -94 -53
-273 9 -267 67 -459 159 -527 l38 -28 83 22 c45 12 210 63 367 114 319 103
430 131 640 161 80 11 244 43 365 71 515 118 664 143 935 154 74 4 207 14 295
23 283 29 661 21 1110 -23 83 -8 254 -19 380 -25 127 -6 248 -13 270 -15 l40
-6 -45 25 c-129 71 -322 114 -910 201 -96 15 -357 67 -580 116 -681 150 -677
149 -786 219 -67 42 -200 77 -369 96 -102 11 -237 41 -351 79 -99 32 -378 95
-869 195 -114 23 -246 43 -330 49 -77 6 -166 17 -198 26 -72 19 -70 19 -92 -5z"/>
<path d="M4050 5840 c-160 -8 -282 -19 -500 -46 -181 -22 -1251 -233 -1622
-320 -175 -41 -322 -74 -327 -74 -6 0 -35 -9 -66 -21 -59 -22 -71 -43 -29 -53
41 -11 170 -124 223 -195 27 -36 76 -109 109 -161 35 -55 74 -103 91 -113 37
-22 87 -93 107 -150 7 -23 32 -130 54 -237 77 -381 130 -481 296 -561 123 -58
251 -105 310 -113 70 -9 150 9 209 45 28 17 103 49 168 70 161 53 785 235
1102 320 278 75 739 221 1105 350 439 155 716 322 791 476 19 39 24 64 24 133
0 113 -13 142 -75 169 -67 29 -106 27 -251 -14 -68 -20 -167 -42 -219 -51
-510 -81 -907 -189 -1515 -412 -240 -88 -495 -194 -940 -392 -144 -64 -331
-130 -420 -149 -71 -14 -200 -24 -225 -16 -25 8 -26 31 -2 43 9 5 78 22 152
36 204 41 228 49 465 166 382 189 977 430 1465 594 440 147 500 162 945 227
419 61 570 99 581 145 9 37 0 182 -12 194 -6 6 -72 18 -145 25 -74 7 -219 25
-324 40 -207 28 -532 47 -795 45 -91 -1 -257 1 -370 3 -113 3 -275 1 -360 -3z"/>
<path d="M7116 4964 c-8 -22 19 -69 56 -98 34 -25 434 -201 523 -229 28 -9 79
-21 115 -27 36 -6 94 -17 130 -26 37 -8 97 -14 140 -12 l75 3 -70 33 c-64 30
-105 45 -250 90 -27 8 -91 32 -141 53 -50 22 -100 39 -110 39 -11 0 -49 15
-86 34 -36 18 -88 39 -115 45 -26 7 -64 23 -83 35 -108 71 -172 92 -184 60z"/>
<path d="M6013 4837 c-148 -100 -186 -124 -260 -166 -43 -24 -103 -61 -133
-81 -70 -48 -154 -90 -252 -126 -43 -16 -78 -32 -78 -35 0 -17 78 -18 213 -4
114 12 191 28 344 70 267 74 283 80 283 112 0 63 -34 273 -44 273 -6 0 -39
-19 -73 -43z"/>
<path d="M7120 4700 c0 -17 38 -88 80 -150 35 -52 94 -107 166 -158 40 -27
178 -187 276 -317 213 -285 460 -639 572 -822 135 -219 253 -296 510 -329 209
-28 303 -16 611 77 84 25 150 39 185 39 34 0 64 6 78 16 20 14 21 17 8 42 -8
15 -42 59 -76 97 -35 39 -86 102 -115 140 -69 91 -183 201 -265 256 -88 58
-208 161 -308 263 -65 67 -99 93 -160 123 -42 21 -140 73 -217 117 -121 68
-219 118 -515 260 -30 14 -69 37 -87 50 -40 30 -109 58 -358 147 -162 58 -280
107 -377 157 -5 2 -8 -1 -8 -8z m1902 -1330 c45 -13 68 -43 68 -88 0 -81 -102
-148 -170 -112 -21 11 -40 60 -40 101 0 20 12 41 40 69 44 44 47 45 102 30z"/>
<path d="M10270 4464 c-108 -20 -435 -44 -730 -54 -140 -5 -271 -13 -290 -18
-36 -8 -46 -29 -20 -43 169 -95 233 -135 325 -204 138 -103 529 -367 593 -399
102 -51 295 -230 441 -406 104 -125 258 -330 281 -374 44 -83 144 -247 156
-257 20 -16 22 -11 35 57 24 126 -10 501 -61 679 -33 116 -68 171 -170 274
-85 85 -109 103 -219 160 -132 70 -179 112 -199 180 -26 84 -9 176 49 272 21
36 39 72 39 80 0 8 -13 27 -28 42 -33 31 -77 34 -202 11z"/>
<path d="M8375 4450 c-88 -4 -173 -8 -189 -9 -29 -1 -29 -1 -10 -22 27 -31 95
-73 298 -184 268 -146 358 -208 487 -335 61 -61 153 -140 204 -175 116 -81
265 -235 421 -435 220 -281 338 -470 518 -823 113 -223 186 -398 240 -584 20
-66 50 -151 66 -187 74 -163 104 -326 68 -363 -15 -14 -17 -14 -26 4 -6 10
-20 52 -31 93 -115 425 -275 837 -396 1016 -40 60 -112 185 -161 277 -48 93
-101 184 -118 202 -76 80 -189 72 -452 -33 -171 -69 -207 -75 -389 -69 -161 5
-263 22 -405 66 -35 11 -66 18 -68 16 -2 -2 25 -50 60 -107 132 -211 203 -347
346 -660 155 -340 280 -685 372 -1029 28 -107 56 -207 62 -224 5 -16 14 -118
18 -225 9 -224 20 -287 56 -321 24 -22 33 -24 122 -21 280 8 427 121 448 343
11 127 -16 258 -117 568 -74 226 -89 283 -87 325 13 226 216 -310 274 -727 10
-69 14 -140 10 -184 -5 -65 -4 -74 14 -83 26 -14 84 10 123 50 16 17 33 30 37
30 4 0 36 33 69 73 40 47 85 118 128 202 78 153 136 233 195 268 100 59 119
105 116 283 l-2 119 56 117 c31 64 80 158 111 210 65 110 129 251 151 328 24
90 29 205 12 287 -37 173 -225 473 -444 708 -189 203 -338 331 -617 527 -207
146 -320 214 -417 252 -55 22 -152 78 -289 168 -197 130 -327 204 -414 235
-39 14 -244 45 -274 41 -9 -1 -88 -5 -176 -8z m2070 -1704 c17 -12 18 -17 7
-41 -9 -19 -18 -25 -35 -23 -18 2 -23 10 -25 41 -3 31 0 37 15 37 11 0 28 -6
38 -14z m114 -200 c27 -28 25 -53 -5 -73 -19 -12 -24 -12 -38 2 -9 10 -16 33
-16 56 0 31 4 39 18 39 10 0 29 -11 41 -24z m109 -202 c26 -8 39 -48 22 -69
-31 -38 -91 5 -75 54 7 22 16 25 53 15z"/>
<path d="M6050 4258 c-47 -29 -119 -76 -160 -105 -83 -59 -705 -376 -817 -416
-275 -99 -609 -339 -987 -707 -174 -169 -361 -371 -382 -412 -28 -54 -29 -136
-4 -214 26 -80 121 -224 235 -359 42 -49 104 -130 138 -179 34 -49 97 -135
139 -192 105 -139 132 -186 163 -279 29 -87 40 -105 61 -105 19 0 37 42 77
185 91 317 408 963 671 1364 195 299 563 764 699 883 40 35 96 102 143 170 43
62 95 135 116 163 72 94 87 204 33 239 -13 9 -28 16 -32 16 -4 0 -46 -24 -93
-52z m-1796 -1608 c11 -9 16 -30 16 -74 0 -124 -33 -174 -110 -163 -43 5 -125
65 -135 98 -15 45 45 135 104 157 29 10 104 0 125 -18z"/>
<path d="M4150 2539 c-19 -8 -21 -12 -11 -19 18 -11 41 -2 41 16 0 8 -1 14 -2
13 -2 0 -14 -5 -28 -10z"/>
<path d="M7170 4271 c0 -20 20 -42 279 -314 160 -168 240 -286 365 -537 97
-197 136 -295 186 -480 17 -63 38 -133 47 -155 8 -22 28 -98 44 -170 38 -167
45 -317 29 -590 -24 -424 -12 -590 53 -710 42 -76 68 -150 113 -312 81 -296
167 -468 296 -588 122 -114 214 -144 434 -144 150 0 186 12 217 70 40 74 -3
335 -137 840 -77 293 -183 561 -341 864 -46 88 -106 216 -133 285 -77 194
-187 380 -432 730 -48 69 -129 195 -180 280 -137 228 -225 355 -285 413 -30
29 -93 93 -141 142 -155 160 -375 375 -395 385 -16 9 -19 7 -19 -9z"/>
<path d="M5450 4260 c-340 -8 -347 -9 -900 -99 -282 -46 -441 -80 -712 -151
-239 -63 -364 -100 -493 -143 -153 -53 -180 -66 -204 -97 -13 -18 -31 -30 -45
-30 -35 0 -88 -20 -114 -44 -61 -55 -91 -200 -72 -344 18 -133 -2 -234 -62
-306 -17 -21 -81 -71 -142 -110 -61 -40 -123 -87 -138 -105 -59 -69 -144 -294
-167 -441 -30 -185 8 -345 97 -409 55 -39 66 -30 138 99 87 158 184 276 441
540 385 393 464 460 773 650 385 237 743 425 1230 645 400 181 635 296 675
330 17 13 26 24 20 23 -5 -1 -152 -5 -325 -8z"/>
<path d="M6630 4091 c0 -6 7 -11 16 -11 9 0 31 -7 50 -16 40 -19 45 -49 10
-65 -20 -10 -24 -20 -29 -84 -9 -97 3 -296 17 -301 6 -2 65 -15 131 -29 83
-17 122 -22 130 -14 13 13 12 308 -1 363 -9 37 -17 44 -114 100 -82 47 -115
61 -157 64 -35 3 -53 1 -53 -7z"/>
<path d="M7100 4070 c-13 -8 -14 -41 -12 -217 4 -217 11 -257 52 -295 10 -10
23 -33 28 -51 5 -19 45 -87 89 -153 115 -173 175 -281 241 -439 33 -77 87
-196 121 -264 35 -69 99 -208 142 -310 44 -102 84 -193 89 -201 36 -56 79
-151 110 -248 21 -63 42 -118 48 -124 13 -13 17 72 16 362 -2 403 -28 578
-120 822 -146 385 -458 864 -703 1076 -61 53 -75 59 -101 42z"/>
<path d="M6209 3973 c-53 -60 -108 -131 -144 -188 -21 -33 -88 -121 -149 -195
-251 -305 -546 -704 -770 -1040 -245 -368 -388 -656 -504 -1011 -38 -118 -99
-290 -134 -384 -36 -93 -73 -195 -83 -225 -10 -30 -27 -75 -37 -99 -32 -75
-106 -380 -122 -504 -8 -66 -22 -127 -30 -139 -37 -52 -2 -129 74 -168 53 -27
139 -26 226 2 74 24 161 27 311 13 74 -7 87 -5 151 19 122 47 184 101 279 241
58 86 72 117 157 343 79 212 110 280 177 388 22 36 51 96 65 132 53 140 56
166 64 547 8 395 1 336 94 745 19 85 47 236 61 335 48 339 135 604 298 909 82
153 99 231 63 288 -14 24 -18 23 -47 -9z"/>
<path d="M6508 3848 c-21 -7 -28 -16 -28 -36 1 -49 36 -222 47 -233 16 -16 71
25 79 57 4 14 3 46 0 72 -4 26 -10 71 -13 100 -5 48 -7 52 -32 51 -14 0 -38
-5 -53 -11z"/>
<path d="M6316 3689 c-9 -13 -16 -27 -16 -30 0 -4 -29 -62 -65 -128 -35 -67
-74 -154 -85 -194 -12 -40 -46 -150 -77 -246 -55 -174 -81 -291 -128 -576 -14
-82 -37 -187 -50 -231 -14 -45 -25 -100 -25 -121 0 -22 -9 -108 -20 -190 -14
-103 -20 -192 -18 -279 l3 -129 62 105 c34 58 67 118 73 133 5 16 54 117 109
225 54 109 122 253 150 322 29 69 81 186 116 260 35 74 80 180 100 235 l37
100 -5 135 c-6 148 -43 325 -91 433 -13 31 -28 82 -31 114 -10 79 -18 92 -39
62z"/>
<path d="M6870 3479 c-14 -3 -44 -12 -67 -18 -22 -6 -52 -20 -65 -32 l-23 -20
47 5 c59 7 98 -7 98 -34 0 -24 -29 -43 -92 -60 l-48 -13 0 -43 c0 -35 5 -49
26 -67 14 -12 30 -32 35 -44 7 -18 16 -23 44 -23 20 0 54 -9 77 -21 27 -14 44
-17 50 -11 19 19 7 285 -15 327 -24 48 -42 62 -67 54z"/>
<path d="M4444 3460 c-5 -5 -77 -41 -160 -78 -82 -38 -213 -105 -290 -149 -76
-43 -152 -85 -167 -93 -16 -8 -92 -68 -170 -133 -78 -66 -173 -144 -212 -175
-38 -30 -109 -92 -156 -136 -47 -45 -126 -117 -174 -161 -87 -79 -212 -235
-290 -364 -21 -36 -67 -107 -102 -159 -35 -52 -70 -117 -78 -145 -29 -99 -11
-357 37 -522 63 -214 200 -347 330 -319 36 8 43 14 49 39 7 31 42 112 109 250
61 127 167 367 174 398 7 31 50 57 67 40 10 -10 -40 -143 -117 -310 -57 -124
-150 -363 -164 -421 -16 -69 -10 -102 35 -198 21 -44 54 -127 74 -185 21 -59
50 -128 66 -155 65 -111 238 -255 362 -301 84 -30 149 -33 275 -9 74 14 107
16 142 8 32 -7 48 -6 55 2 37 47 73 189 100 391 11 83 29 169 44 210 14 39 39
107 56 153 25 68 31 99 31 166 0 88 -8 113 -93 298 -61 132 -232 381 -397 578
-121 144 -168 213 -222 325 -39 82 -43 97 -46 185 -4 87 -2 101 21 146 51 100
225 277 617 625 184 164 230 209 214 209 -6 0 -14 -4 -20 -10z m-1256 -1549
c8 -5 12 -22 10 -42 -3 -30 -7 -34 -36 -37 -37 -4 -62 12 -62 39 0 38 53 63
88 40z m-120 -199 c4 -27 -23 -62 -48 -62 -20 0 -32 22 -25 45 3 8 7 22 10 31
8 25 59 14 63 -14z m-70 -185 c27 -32 -23 -86 -67 -72 -24 7 -29 53 -9 73 16
16 63 15 76 -1z"/>
<path d="M6602 3228 c-15 -15 -16 -84 -1 -93 13 -9 38 24 39 51 0 11 -6 28
-13 37 -10 14 -15 15 -25 5z"/>
<path d="M6918 2980 c-9 -13 -24 -20 -45 -20 -30 0 -32 -2 -28 -27 14 -95 14
-170 -1 -192 -27 -38 -56 -24 -70 33 -17 65 -33 80 -77 72 -54 -10 -59 -22
-45 -110 l12 -78 30 7 c17 3 81 9 141 13 61 4 116 11 122 15 39 24 40 194 3
268 -11 21 -23 39 -25 39 -3 0 -10 -9 -17 -20z"/>
<path d="M6754 2591 c-17 -4 -36 -11 -42 -15 -17 -10 -15 -87 3 -130 17 -39
25 -41 93 -26 27 7 57 7 84 1 51 -12 65 -3 74 45 8 45 -2 81 -31 110 -21 21
-33 24 -87 23 -35 -1 -77 -4 -94 -8z"/>
<path d="M6793 2333 c-24 -8 -43 -20 -43 -27 0 -7 12 -29 28 -49 15 -19 39
-56 54 -81 39 -65 55 -61 81 21 24 72 22 88 -15 122 -37 35 -45 36 -105 14z"/>
</g>
</svg>
